# xmcd
#
# Track frame offsets:
#	150
#	16279
#	34367
#	55698
#	75222
#	91878
#	106510
#	126087
#	144827
#	164441
#	178318
#
# Disc length: 2597 seconds
# Revision: 1
# Processed by: cddbd v1.5.2PL0 Copyright (c) Steve Scherf et al.
# Submitted via: dBpowerAMP V12.0
#
DISCID=7d0a230b
DTITLE=Various Artist - Washashore Cowgirl
DYEAR=2016
DGENRE=Pop/Rock
TTITLE0=Monica Rizzio - You and Me
TTITLE1=Monica Rizzio - Best I Can
TTITLE2=Monica Rizzio - Texarkana
TTITLE3=Monica Rizzio - A Little Time
TTITLE4=Monica Rizzio - Willie Nelson
TTITLE5=Monica Rizzio - Delta Dawn
TTITLE6=Monica Rizzio - Luckier Than You
TTITLE7=Monica Rizzio - Long Lost Friend
TTITLE8=Monica Rizzio - Buttercups
TTITLE9=Monica Rizzio - Washashore Cowgirl
TTITLE10=Monica Rizzio feat. Mark Erelli - On My Way
EXTD=
EXTT0=
EXTT1=
EXTT2=
EXTT3=
EXTT4=
EXTT5=
EXTT6=
EXTT7=
EXTT8=
EXTT9=
EXTT10=
PLAYORDER=
